# xmcd
#
# Track frame offsets:
#   150
#   12036
#   46807
#   78379
#   97387
#   156197
#   182501
#   217212
#   252583
#
# Disc length: 3605 seconds
#
# Revision: 0
# Processed by: cddbd v1.5.2PL0 Copyright (c) Steve Scherf et al.
# Submitted via: GXTranscoder 2.0.1939
#
DISCID=770e1309
DTITLE=Buddy Guy - Live: The Real Deal
DYEAR=1900
DGENRE=Blues
TTITLE0=I've Got My Eyes On You
TTITLE1=Sweet Black Angel(Black Angel Blues)
TTITLE2=Talk To Me Baby
TTITLE3=My Time After Awhile
TTITLE4=I've Got News For You
TTITLE5=Damn Right I've Got The Blues
TTITLE6=First Time I Met The Blues
TTITLE7=Ain't That Lovin' You
TTITLE8=Let Me Love You Baby
EXTD=
EXTT0=
EXTT1=
EXTT2=
EXTT3=
EXTT4=
EXTT5=
EXTT6=
EXTT7=
EXTT8=
PLAYORDER=
